PathFileType	4	(X/Y/Z)	jog.trc
DataRate	CameraRate	NumFrames	NumMarkers	Units	OrigDataRate	OrigDataStartFrame	OrigNumFrames
250.000000	250.000000	4	51	mm	250.000000	0	837
Frame#	Time	C7			RSH			LSH			MAN			T7			LARM			LELB			LFOREARM			LWR			RARM			RELB			RFOREARM			RWR			RASI			LASI			SACR			P1			P2			P3			LTHLP			LTHLD			LTHAP			LTHAD			LLEPI			LPAT			LTIAP			LTIAD			LTILAT			LLMAL			LHEEL			LMFS			LMFL			LP1MT			LTOE			LP5MT			RTHLP			RTHLD			RTHAP			RTHAD			RLEPI			RPAT			RTIAP			RTIAD			RTILAT			RLMAL			RHEEL			RMFS			RMFL			RP1MT			RTOE			RP5MT			
		X1	Y1	Z1	X2	Y2	Z2	X3	Y3	Z3	X4	Y4	Z4	X5	Y5	Z5	X6	Y6	Z6	X7	Y7	Z7	X8	Y8	Z8	X9	Y9	Z9	X10	Y10	Z10	X11	Y11	Z11	X12	Y12	Z12	X13	Y13	Z13	X14	Y14	Z14	X15	Y15	Z15	X16	Y16	Z16	X17	Y17	Z17	X18	Y18	Z18	X19	Y19	Z19	X20	Y20	Z20	X21	Y21	Z21	X22	Y22	Z22	X23	Y23	Z23	X24	Y24	Z24	X25	Y25	Z25	X26	Y26	Z26	X27	Y27	Z27	X28	Y28	Z28	X29	Y29	Z29	X30	Y30	Z30	X31	Y31	Z31	X32	Y32	Z32	X33	Y33	Z33	X34	Y34	Z34	X35	Y35	Z35	X36	Y36	Z36	X37	Y37	Z37	X38	Y38	Z38	X39	Y39	Z39	X40	Y40	Z40	X41	Y41	Z41	X42	Y42	Z42	X43	Y43	Z43	X44	Y44	Z44	X45	Y45	Z45	X46	Y46	Z46	X47	Y47	Z47	X48	Y48	Z48	X49	Y49	Z49	X50	Y50	Z50	X51	Y51	Z51	

1	0	-5492.928222656252	1585.667236328126	209.8662719726564	-5487.647949218752	1583.701171875001	379.9170532226564	-5461.076660156252	1559.268432617188	55.21026992797854	-5360.960449218752	1485.355346679688	241.9683532714845	-5563.815917968752	1399.205810546875	216.9006500244142	-5475.792480468752	1368.438842773438	-41.75678634643556	-5484.759277343752	1235.192993164063	-73.82395935058597	-5346.928710937502	1240.28955078125	-20.98405838012696	-5234.468261718752	1249.668090820313	33.0815773010254	-5613.307617187502	1467.965576171875	460.8943481445315	-5720.850097656252	1383.326049804688	494.3471984863284	-5654.891601562502	1255.5703125	506.9436645507815	-5606.302734375002	1132.888916015625	505.4350585937502	-5386.030761718752	1115.672729492188	328.8544921875001	-5402.879882812502	1095.393676757813	119.8499450683594	-5574.174316406252	1158.19140625	251.7900848388673	-5589.162109375002	1131.113525390625	200.010467529297	-5584.706054687502	1128.848510742188	306.935516357422	-5617.197265625002	1075.159057617188	253.9016876220704	-5575.647949218752	819.7490234375005	64.266960144043	-5607.203613281252	711.485778808594	83.44777679443362	-5447.806152343752	776.806274414063	139.2319641113282	-5488.901855468752	676.4034423828127	146.0238800048829	-5652.875976562502	596.3179321289065	107.6946411132813	-5550.134765625002	569.6580200195315	162.1152648925782	-5721.916015625002	438.2094421386721	191.5951843261719	-5816.581054687502	334.224822998047	201.9245452880861	-5809.759277343752	412.0639953613284	122.3241882324219	-5939.005371093752	237.1184082031251	155.4369049072266	-5999.817871093752	265.8446044921876	201.6846923828126	-5864.634765625002	157.9523620605469	219.0443878173829	-5910.283691406252	151.1416168212891	157.6482391357422	-5874.691894531252	88.87046813964847	263.716522216797	-5824.462402343752	84.01097106933597	239.8016204833986	-5905.676269531252	79.36811828613284	139.3428344726563	-5367.495117187502	885.5382690429692	432.0373535156252	-5287.453613281252	804.8818969726567	420.7175598144534	-5254.018066406252	934.0397949218755	353.7258300781251	-5194.444335937502	858.5302734375005	350.460662841797	-5204.764160156252	683.8740234375002	385.804870605469	-5115.399902343752	705.562683105469	338.3568725585939	-5250.457519531252	484.3051452636721	295.0834350585939	-5314.954589843752	376.8468017578126	275.2145080566407	-5302.213867187502	488.5953369140627	371.3762817382814	-5397.831054687502	275.0758056640626	322.1766662597657	-5468.121582031252	277.250701904297	266.0679626464845	-5303.882812500002	221.2962646484376	285.3493957519532	-5361.961914062502	210.7593536376954	333.3335876464845	-5270.684082031252	149.6482238769532	245.5157623291017	-5244.616210937502	148.8865966796876	285.3727416992189	-5318.823730468752	142.7078247070313	361.1011657714845	
2	0.004	-5478.690917968752	1588.100952148438	209.9017791748048	-5473.569335937502	1586.329101562501	379.7924194335939	-5446.876464843752	1561.905029296876	55.55257415771487	-5346.796875000002	1488.43359375	242.3438415527345	-5548.901855468752	1401.480346679688	216.8919067382814	-5460.914062500002	1371.26513671875	-41.3997268676758	-5469.784179687502	1237.868041992188	-73.29473114013675	-5334.935546875002	1245.921630859375	-17.92626953125001	-5222.502441406252	1257.945190429688	36.43362426757814	-5600.314941406252	1472.143310546875	459.862731933594	-5708.772949218752	1388.397094726563	492.7193298339846	-5644.026855468752	1260.112060546875	506.2261352539065	-5596.010253906252	1136.986694335938	505.2140197753909	-5370.828125000002	1117.955444335938	329.1215820312501	-5387.336914062502	1097.108520507813	120.1974792480469	-5558.723144531252	1160.898071289063	251.6976928710939	-5573.425781250002	1133.779174804688	199.9138336181642	-5569.296386718752	1131.566284179688	306.8689575195314	-5601.645019531252	1077.905151367188	253.7431793212892	-5562.765136718752	823.5554199218755	64.38466644287112	-5595.542968750002	715.6525878906252	83.4782409667969	-5435.216308593752	778.9266967773442	138.6998291015626	-5479.520996093752	678.199401855469	147.1881713867188	-5642.284667968752	600.8152465820315	107.7245483398438	-5540.480957031252	572.686950683594	162.3955841064454	-5713.773437500002	442.7902832031252	190.7542572021485	-5807.922363281252	339.187469482422	201.0231323242189	-5800.291015625002	417.3446044921877	122.0112075805665	-5929.862792968752	242.7474670410157	154.6152496337891	-5989.341308593752	273.8159179687501	201.2599639892579	-5859.189941406252	161.0118560791016	217.9664764404298	-5905.974121093752	156.1698150634766	156.5178985595704	-5859.730957031252	94.6902770996094	270.5635986328126	-5823.924316406252	83.7617111206055	237.1525421142579	-5902.591308593752	82.97528076171878	139.6122741699219	-5353.712402343752	886.8251342773442	431.7744140625002	-5274.397460937502	805.5674438476567	420.2952270507815	-5239.293945312502	935.6792602539067	355.3888244628907	-5180.543945312502	859.502075195313	351.2475891113282	-5191.992675781252	684.0488891601565	386.0893249511721	-5102.505859375002	707.1055297851565	339.1354370117189	-5230.641601562502	482.408386230469	295.707244873047	-5291.054199218752	372.6654663085939	275.5281982421876	-5283.107421875002	485.2050476074221	371.7922363281251	-5370.270996093752	267.6705627441407	322.1670227050782	-5442.610351562502	268.5117187500001	266.9935302734376	-5274.745117187502	217.1716918945314	284.7566223144532	-5332.179687500002	204.4493713378907	333.3866271972657	-5239.166992187502	147.007553100586	244.2894134521486	-5208.272460937502	148.1990203857422	286.4299316406251	-5287.028320312502	137.0721740722657	359.930877685547	
3	0.008	-5464.361328125002	1590.376464843751	209.9923400878907	-5459.408203125002	1588.816772460938	379.6319274902345	-5432.745117187502	1564.449462890626	55.90150070190433	-5332.479980468752	1491.140014648438	242.7575531005861	-5534.225585937502	1403.71533203125	216.9609527587892	-5446.447265625002	1373.97119140625	-41.02809143066408	-5454.680664062502	1240.509765625	-72.90900421142581	-5322.542968750002	1250.531372070313	-15.72045707702637	-5209.099121093752	1266.648559570313	38.55508422851564	-5587.166992187502	1476.114868164063	458.888122558594	-5696.616699218752	1393.221923828125	491.142517089844	-5633.084472656252	1264.569458007813	505.6464538574221	-5585.653808593752	1140.921508789063	505.0802001953127	-5355.706542968752	1120.22314453125	329.2656860351564	-5371.900878906252	1099.269409179688	120.2072219848633	-5543.316894531252	1163.407470703125	251.6430511474611	-5557.846191406252	1136.333862304688	199.7848205566407	-5553.861816406252	1133.986328125	306.7831115722657	-5586.397949218752	1080.439086914063	253.5866699218751	-5549.808105468752	827.2819824218755	64.59035491943362	-5583.504394531252	719.6560058593752	83.54265594482425	-5422.327636718752	781.2366333007817	138.4556427001954	-5465.965332031252	681.3194580078127	145.0487213134766	-5631.319335937502	605.1325683593752	107.7049713134766	-5529.640136718752	575.872253417969	161.982162475586	-5704.377929687502	446.8253479003909	190.3068084716797	-5798.010742187502	343.6042785644532	200.5152740478517	-5790.601562500002	422.6210937500002	121.6948013305665	-5921.453613281252	248.7347412109376	154.0634918212891	-5978.996093750002	281.6895751953126	201.0760040283204	-5855.808593750002	163.8340454101563	215.6799316406251	-5899.245117187502	161.1420593261719	156.1023864746094	-5858.429687500002	97.80084991455084	267.835906982422	-5821.314941406252	84.23352813720706	235.4453125000001	-5898.852050781252	87.06353759765628	139.8061676025391	-5339.987792968752	887.8362426757817	431.4746398925784	-5261.557128906252	805.9205932617192	419.7807922363284	-5225.248046875002	936.7431030273442	357.5362854003907	-5166.637695312502	859.9985351562505	352.0372924804689	-5179.234375000002	683.9102172851565	386.097351074219	-5089.829589843752	708.158630371094	339.4191894531251	-5211.067382812502	480.3165283203127	296.1062622070314	-5267.716308593752	368.453826904297	275.7171020507814	-5264.037109375002	481.5758056640627	372.2136840820314	-5342.533691406252	260.3138732910157	322.2442626953126	-5415.804687500002	259.3900451660157	267.4932250976564	-5245.695800781252	213.1079406738282	284.2339782714845	-5303.238769531252	196.5701446533204	333.0370483398439	-5208.181152343752	144.5595855712891	242.9597015380861	-5181.515136718752	145.3842315673829	282.8868713378907	-5255.206542968752	132.0581817626954	358.7675781250001	
4	0.012	-5449.988769531252	1592.603027343751	210.0704345703126	-5445.317871093752	1591.271484375001	379.5046386718751	-5418.584472656252	1566.822509765626	56.27071380615237	-5318.097167968752	1493.86962890625	243.0755004882814	-5519.332519531252	1405.825927734375	217.0359649658204	-5432.016113281252	1376.501342773438	-40.5182342529297	-5439.827636718752	1242.98388671875	-72.30106353759768	-5308.174316406252	1255.972778320313	-14.57953262329102	-5195.686035156252	1274.819580078125	40.61519622802736	-5573.962402343752	1479.856201171875	457.9370422363284	-5684.126953125002	1397.812622070313	489.6496276855471	-5621.749511718752	1268.745239257813	505.0987854003909	-5574.349609375002	1144.65380859375	504.9549560546877	-5340.555175781252	1122.391723632813	329.5657348632814	-5356.254394531252	1101.127563476563	120.5748138427735	-5527.763183593752	1165.686157226563	251.5586700439454	-5542.251953125002	1138.6650390625	199.672088623047	-5538.525878906252	1136.218505859375	306.6836853027345	-5570.981445312502	1082.7705078125	253.3841552734376	-5536.593261718752	830.841430664063	64.75675964355472	-5571.138183593752	723.4262695312502	83.58196258544925	-5409.635253906252	783.428833007813	138.2318267822266	-5456.044921875002	683.2106933593752	146.5565948486329	-5619.673339843752	609.163757324219	107.720199584961	-5518.520507812502	578.4182128906252	161.6738281250001	-5694.597656250002	451.1783752441409	190.0901794433594	-5787.714355468752	348.339080810547	200.2382049560548	-5780.153808593752	427.6429138183596	121.4658126831055	-5911.622070312502	254.722625732422	153.1581573486329	-5968.036132812502	289.500701904297	200.7145843505861	-5845.215332031252	169.0031280517579	216.4555816650392	-5892.623046875002	166.5784301757813	155.6172637939454	-5853.081054687502	101.9428176879883	267.591766357422	-5816.474609375002	85.571891784668	234.5733489990236	-5895.655761718752	91.94477081298831	139.9022827148438	-5326.422363281252	888.5499877929692	431.1388244628909	-5248.852539062502	805.9230957031255	419.2095642089846	-5210.097656250002	937.5003051757817	358.4421691894532	-5152.729980468752	860.0092163085942	352.7572326660157	-5167.010253906252	683.2513427734377	386.3406066894534	-5077.345214843752	708.791687011719	339.8106384277345	-5191.771484375002	478.1127624511721	296.4602355957032	-5244.111816406252	363.4769287109376	275.2296752929689	-5244.680175781252	477.4996337890627	372.4385375976564	-5314.692382812502	253.093963623047	322.4120483398439	-5388.189941406252	250.1376037597657	268.0294799804689	-5216.428222656252	209.3820037841798	283.9400329589845	-5273.456054687502	191.0694122314454	332.9317016601564	-5177.193847656252	142.4553222656251	241.7476959228517	-5147.012207031252	144.6177062988282	282.8613586425782	-5223.124023437502	127.1538543701172	357.507049560547	
